<svg width="20" height="20" viewBox="0 0 20 20" fill="none" xmlns="http://www.w3.org/2000/svg">
<path d="M9.99976 0.00012207C15.5198 0.00012207 19.9998 4.48012 19.9998 10.0001C19.9998 15.5301 15.5198 20.0001 9.99976 20.0001C4.46976 20.0001 -0.000244141 15.5301 -0.000244141 10.0001C-0.000244141 4.48012 4.46976 0.00012207 9.99976 0.00012207ZM13.8498 6.71012C13.9598 6.36012 13.6398 6.03012 13.2898 6.14012L8.16976 7.74012C7.95976 7.81012 7.78976 7.97012 7.72976 8.18012L6.12976 13.3101C6.01976 13.6501 6.34976 13.9801 6.68976 13.8701L11.7898 12.2701C11.9998 12.2101 12.1698 12.0401 12.2298 11.8301L13.8498 6.71012Z" fill="black"/>
</svg>
